<svg id="Layer_1" data-name="Layer 1" xmlns="http://www.w3.org/2000/svg" xmlns:xlink="http://www.w3.org/1999/xlink" viewBox="0 0 137 37"><defs><style>.cls-1{stroke:#fc3;stroke-miterlimit:10;stroke-width:0.6548px;fill:url(#linear-gradient);}.cls-2{fill:#fff;opacity:0.3;isolation:isolate;}</style><linearGradient id="linear-gradient" x1="-1041.333" y1="2974.2517" x2="-1041.333" y2="2973.8071" gradientTransform="translate(320610.5937 -234129.8188) scale(307.819 78.731)" gradientUnits="userSpaceOnUse"><stop offset="0.008" stop-color="#ee5f13"/><stop offset="0.994" stop-color="#fab823"/></linearGradient></defs><title>button_o_135x35</title><g id="Mask_Group_7" data-name="Mask Group 7"><path id="Rectangle_37" data-name="Rectangle 37" class="cls-1" d="M18.2509,1H118.7493A17.366,17.366,0,0,1,136,18.5h0A17.366,17.366,0,0,1,118.7493,36H18.2509A17.366,17.366,0,0,1,1,18.5H1A17.3381,17.3381,0,0,1,18.2509,1Z"/><path id="Path_34" data-name="Path 34" class="cls-2" d="M18.2509,4.7188H118.7493A15.4,15.4,0,0,1,133.9961,19.2c0-.35.0436-.6562.0436-1.0062a15.4,15.4,0,0,0-15.29-15.4875H18.2509a15.4,15.4,0,0,0-15.29,15.4875c0,.35.0436.6562.0436,1.0062A15.4013,15.4013,0,0,1,18.2509,4.7188Z"/></g></svg>
