<svg id="Layer_1" data-name="Layer 1" xmlns="http://www.w3.org/2000/svg" xmlns:xlink="http://www.w3.org/1999/xlink" viewBox="0 0 235 65"><defs><style>.cls-1{stroke:#12b568;stroke-miterlimit:10;stroke-width:1.7123px;fill:url(#linear-gradient);}.cls-2{fill:#fff;opacity:0.3;}</style><linearGradient id="linear-gradient" x1="117.5" y1="62.5" x2="117.5" y2="2.5" gradientUnits="userSpaceOnUse"><stop offset="0" stop-color="#048637"/><stop offset="1" stop-color="#5cb85c"/></linearGradient></defs><title>button_g_230x60</title><path class="cls-1" d="M32.2046,2.5H202.7963A29.7047,29.7047,0,0,1,232.501,32.2047v.59A29.7056,29.7056,0,0,1,202.7954,62.5H32.2037A29.7047,29.7047,0,0,1,2.499,32.7953v-.59A29.7056,29.7056,0,0,1,32.2046,2.5Z"/><path class="cls-2" d="M31.9131,8.906H203.0869c13.7769,0,25.0562,10.9833,25.9366,24.8116.0365-.5745.0857-1.1456.0857-1.7293,0-14.6351-11.6733-26.541-26.0223-26.541H31.9131c-14.349,0-26.0223,11.9059-26.0223,26.541,0,.5837.0494,1.1548.0861,1.7293C6.8571,19.8893,18.1366,8.906,31.9131,8.906Z"/></svg>