<svg xmlns="http://www.w3.org/2000/svg" xmlns:xlink="http://www.w3.org/1999/xlink" viewBox="0 0 230 60"><defs><style>.cls-1{isolation:isolate;}.cls-2,.cls-4{mix-blend-mode:lighten;}.cls-2{fill:url(#linear-gradient);}.cls-3{stroke-miterlimit:10;stroke-width:5.0528px;fill:url(#linear-gradient-2);stroke:url(#linear-gradient-3);}.cls-4{fill:url(#linear-gradient-4);}</style><linearGradient id="linear-gradient" x1="114.1466" y1="-40.7778" x2="114.7841" y2="14.475" gradientUnits="userSpaceOnUse"><stop offset="0.008"/><stop offset="0.994" stop-color="#fff" stop-opacity="0.3"/></linearGradient><linearGradient id="linear-gradient-2" x1="115" y1="56.5" x2="115" y2="3.5" gradientUnits="userSpaceOnUse"><stop offset="0.008" stop-color="#ee5f13"/><stop offset="0.994" stop-color="#fab823"/></linearGradient><linearGradient id="linear-gradient-3" x1="115" y1="59.0264" x2="115" y2="0.9736" xlink:href="#linear-gradient-2"/><linearGradient id="linear-gradient-4" x1="114.127" y1="-40.6788" x2="114.7309" y2="11.6564" xlink:href="#linear-gradient"/></defs><title>button_o_230x60new</title><g class="cls-1"><g id="Layer_1" data-name="Layer 1"><path class="cls-2" d="M222.2174,32.5877c0-14.7889-10.67-26.7776-23.8319-26.7776H31.6145c-13.162,0-23.8319,11.9887-23.8319,26.7776v1.2037c0,.8816.04,1.7525.1145,2.6122,1.1691-13.5626,11.34-24.1653,23.7174-24.1653h166.771c12.3773,0,22.5483,10.6027,23.7174,24.1653.074-.86.1145-1.7306.1145-2.6122Z"/><rect class="cls-3" x="5" y="3.5" width="220" height="53" rx="25.1733"/><path class="cls-4" d="M222.1522,28.7618C222.1522,14.81,211.4823,3.5,198.32,3.5H31.5493C18.3873,3.5,7.7174,14.81,7.7174,28.7618v1.1356c0,.8317.04,1.6533.1145,2.4644C9.001,19.5669,19.1719,9.5644,31.5493,9.5644H198.32c12.3774,0,22.5484,10.0025,23.7175,22.7974.074-.8111.1145-1.6327.1145-2.4644Z"/></g></g></svg>