<svg xmlns="http://www.w3.org/2000/svg" xmlns:xlink="http://www.w3.org/1999/xlink" width="231.7142" height="61.7123" viewBox="0 0 231.7142 61.7123"><defs><style>.cls-1{stroke:#12b568;stroke-miterlimit:10;stroke-width:1.7123px;fill:url(#linear-gradient);}.cls-2{fill:#fff;opacity:0.3;}</style><linearGradient id="linear-gradient" x1="115.8571" y1="60.8562" x2="115.8571" y2="0.8562" gradientUnits="userSpaceOnUse"><stop offset="0" stop-color="#048637"/><stop offset="1" stop-color="#5cb85c"/></linearGradient></defs><title>button_g_230x60</title><g id="Layer_2" data-name="Layer 2"><g id="Layer_1-2" data-name="Layer 1"><path class="cls-1" d="M30.5618.8562H201.1534a29.7047,29.7047,0,0,1,29.7047,29.7047v.59a29.7056,29.7056,0,0,1-29.7056,29.7056H30.5609A29.7047,29.7047,0,0,1,.8562,31.1515v-.59A29.7056,29.7056,0,0,1,30.5618.8562Z"/><path class="cls-2" d="M30.27,7.2622H201.444c13.777,0,25.0562,10.9832,25.9367,24.8116.0364-.5745.0856-1.1456.0856-1.7293,0-14.6351-11.6733-26.5411-26.0223-26.5411H30.27c-14.3491,0-26.0224,11.906-26.0224,26.5411,0,.5837.05,1.1548.0861,1.7293C5.2143,18.2454,16.4937,7.2622,30.27,7.2622Z"/></g></g></svg>