<svg id="Layer_1" data-name="Layer 1" xmlns="http://www.w3.org/2000/svg" viewBox="0 0 75 75"><defs><style>.cls-1{fill:none;stroke:#12b568;stroke-miterlimit:10;stroke-width:1.8561px;}.cls-2{fill:#12b568;}</style></defs><title>check_g_75x75</title><circle class="cls-1" cx="38.8709" cy="43.8094" r="29.7426"/><path class="cls-2" d="M4.4913.5522c1.1394.9952,2.2358,2.0388,3.3629,3.0657C8.9476,4.6724,9.966,5.7934,11.0311,6.8857c1.0848,1.0793,2.0188,2.2727,3.03,3.4171,1.0011,1.1526,1.942,2.3488,2.8718,3.5568A129.2477,129.2477,0,0,1,27.0191,29.1135,212.7373,212.7373,0,0,1,41.8177,62.2911l-7.4264-.5056a72.9646,72.9646,0,0,1,5.8644-9.0985,55.2309,55.2309,0,0,1,7.4105-8.0415A41.8162,41.8162,0,0,1,66.7339,34.81l.2368.5352a93.8754,93.8754,0,0,0-7.9787,6.4808,68.21,68.21,0,0,0-6.7783,7.2265,82.66,82.66,0,0,0-5.6978,7.9959c-1.7532,2.7766-3.37,5.6575-4.9264,8.5966l-4.21,7.9492L34.1629,65.14c-2.1318-5.604-4.1274-11.176-6.2867-16.68q-3.1854-8.2725-6.7745-16.3467c-2.4068-5.3808-4.9895-10.6818-7.7882-15.898-.6922-1.31-1.3869-2.6219-2.1458-3.8934C10.4313,11.0344,9.7212,9.72,8.9382,8.4568,7.4348,5.8779,5.7917,3.3879,4.1946.813Z"/></svg>