<svg xmlns="http://www.w3.org/2000/svg" xmlns:xlink="http://www.w3.org/1999/xlink" viewBox="0 0 30 30"><defs><style>.cls-1{isolation:isolate;}.cls-2{fill:#933;}.cls-2,.cls-4{fill-rule:evenodd;}.cls-3{fill:#fff;opacity:0.5;}.cls-4{opacity:0.2;mix-blend-mode:darken;fill:url(#radial-gradient);}</style><radialGradient id="radial-gradient" cx="15" cy="15" r="14" gradientUnits="userSpaceOnUse"><stop offset="0" stop-color="#fff" stop-opacity="0.25"/><stop offset="1" stop-opacity="0.53"/></radialGradient></defs><title>close</title><g class="cls-1"><g id="Layer_1" data-name="Layer 1"><path class="cls-2" d="M28.2384,1.7616h0a2.6,2.6,0,0,0-3.6774,0L16.8387,9.484a2.6,2.6,0,0,1-3.6774,0L5.439,1.7616a2.6,2.6,0,0,0-3.6774,0h0a2.6,2.6,0,0,0,0,3.6773L9.484,13.1614a2.6,2.6,0,0,1,0,3.6773L1.7616,24.5611a2.6,2.6,0,0,0,0,3.6773h0a2.6,2.6,0,0,0,3.6773,0l7.7224-7.7224a2.6,2.6,0,0,1,3.6774,0l7.7224,7.7224a2.6,2.6,0,0,0,3.6773,0h0a2.6,2.6,0,0,0,0-3.6773L20.516,16.8387a2.6,2.6,0,0,1,0-3.6773l7.7224-7.7225A2.6,2.6,0,0,0,28.2384,1.7616Z"/><path class="cls-3" d="M2.7073,2.3658s.939-.8536,2.22.3415S12.439,9.9634,12.439,9.9634c.1708.1707-.1707.4268-.3414.2561L4.4146,3.39a2.54,2.54,0,0,0-2.2195-.4268A2.0988,2.0988,0,0,1,2.7073,2.3658Z"/><path class="cls-3" d="M27.5181,2.0731a1.8823,1.8823,0,0,0-2.2708,0,1.9015,1.9015,0,0,0-.4113.4309.1147.1147,0,0,0,.1057.18,16.7752,16.7752,0,0,1,2.89.0053.1138.1138,0,0,0,.1027-.1782A1.8984,1.8984,0,0,0,27.5181,2.0731Z"/><path class="cls-4" d="M28.2384,1.7616h0a2.6,2.6,0,0,0-3.6774,0L16.8387,9.484a2.6,2.6,0,0,1-3.6774,0L5.439,1.7616a2.6,2.6,0,0,0-3.6774,0h0a2.6,2.6,0,0,0,0,3.6773L9.484,13.1614a2.6,2.6,0,0,1,0,3.6773L1.7616,24.5611a2.6,2.6,0,0,0,0,3.6773h0a2.6,2.6,0,0,0,3.6773,0l7.7224-7.7224a2.6,2.6,0,0,1,3.6774,0l7.7224,7.7224a2.6,2.6,0,0,0,3.6773,0h0a2.6,2.6,0,0,0,0-3.6773L20.516,16.8387a2.6,2.6,0,0,1,0-3.6773l7.7224-7.7225A2.6,2.6,0,0,0,28.2384,1.7616Z"/></g></g></svg>