<svg xmlns="http://www.w3.org/2000/svg" xmlns:xlink="http://www.w3.org/1999/xlink" viewBox="0 0 69 69"><defs><style>.cls-1{fill:none;}.cls-2{clip-path:url(#clip-path);}.cls-3{fill:#f17b18;}.cls-4{fill:#fff;}</style><clipPath id="clip-path"><rect class="cls-1" width="69" height="69"/></clipPath></defs><title>email_70x70</title><g id="Layer_2" data-name="Layer 2"><g id="Layer_1-2" data-name="Layer 1"><g class="cls-2"><g id="Mask_Group_35" data-name="Mask Group 35"><circle id="Ellipse_4" data-name="Ellipse 4" class="cls-3" cx="34.5" cy="34.5" r="34.5"/><path id="Path_104" data-name="Path 104" class="cls-3" d="M13.7409,21.38h41.538a.1282.1282,0,0,1,.1281.1282h0v6.8408A19.3,19.3,0,0,1,36.1166,47.64H33.1594A19.5171,19.5171,0,0,1,13.6423,28.1224V21.5083A.1282.1282,0,0,1,13.7409,21.38Z"/><path id="Path_105" data-name="Path 105" class="cls-4" d="M13.6029,21.3506,33.4256,36.018a1.9121,1.9121,0,0,0,2.1685,0L55.4169,21.4Z"/><path id="Path_106" data-name="Path 106" class="cls-4" d="M27.6789,33.4453,13.8789,46.26a2.5228,2.5228,0,0,1-.3746-1.2617V22.9967Z"/><path id="Path_107" data-name="Path 107" class="cls-4" d="M40.05,34.362,53.9383,47.3143a2.8681,2.8681,0,0,1-1.3012.2957H16.3924a2.8593,2.8593,0,0,1-1.2025-.2464L29.0589,34.431,34.5,38.4429Z"/><path id="Path_108" data-name="Path 108" class="cls-4" d="M55.5056,22.9869v22.06A2.4248,2.4248,0,0,1,55.2,46.22L41.4887,33.4059Z"/></g></g></g></g></svg>