<svg xmlns="http://www.w3.org/2000/svg" width="151.4449" height="88.2739" viewBox="0 0 151.4449 88.2739"><defs><style>.cls-1,.cls-2{fill:none;}.cls-1,.cls-2,.cls-3{stroke:#fff;stroke-miterlimit:10;stroke-width:1.4449px;}.cls-2{stroke-linecap:round;}.cls-3{fill:#fff;}</style></defs><title>logo_150x87px</title><g id="Layer_2" data-name="Layer 2"><g id="Layer_1-2" data-name="Layer 1"><g id="Layer_1-2-2" data-name="Layer 1-2"><path class="cls-1" d="M66.1012,29.4216c-4.98,3.3175-7.8,5.1654-12.1269,6.5311-4.44,1.4012-8.1161,1.5533-12.403,1.73-6.7825.28-7.5917-.6642-13.5766-.07a38.9132,38.9132,0,0,0-10.2584,2.2543C14.6406,41.07,11.6084,42.29,9.06,45.3405a16.8045,16.8045,0,0,0-3.2219,6.3184,20.0044,20.0044,0,0,0-.4344,8.9395,1.05,1.05,0,0,1-.6965,1.1947,6.47,6.47,0,0,0-.9146.3979,4.3694,4.3694,0,0,0-1.65,1.3187c-.5767.7926-.6661,1.7265-.8212,3.562-.1228,1.4533-.0023,1.5069-.1541,2.6786a22.2348,22.2348,0,0,0-.4443,2.5014A5.13,5.13,0,0,0,2.1357,75.6c.7393.7428,2.0027,1.4967,2.4983,1.1275.57-.4246-.2881-2.0287.3766-2.4949a.8833.8833,0,0,1,1.0347.1061c.5527.5531-.4823,1.6823-.0864,2.6722.3412.8532,1.4237.7983,3.8361,1.5464,3.09.9579,4.1939,1.9405,4.845,1.3817.7277-.6246-.1681-2.2673.6827-2.8657a1.2492,1.2492,0,0,1,1.515.1286c.5294.6192-.4963,1.6958-.0929,2.6045.3636.8187,1.5982.8494,3.2494,1.1242,4.5118.7508,6.2266,2.3408,7.1045,1.4392.8126-.8344-.199-2.6666,1.027-3.0387a1.1593,1.1593,0,0,1,.8153.0546c1.1071.5067.0345,1.9929.6268,3.09.584,1.0815,2.2231.7421,5.5088,1.1817,4.1094.55,5.8831,1.6607,6.695.727.7421-.8534-.2344-2.3619.6021-2.9946a1.9142,1.9142,0,0,1,2.2919.3959c.8076.8871-.1055,2.0143.4874,2.9589.7627,1.215,2.86.2844,6.6273.7333,3.5721.4258,5.3487,1.6989,6.2212.7722.8013-.8509-.2161-2.435.7181-3.2106a2.0517,2.0517,0,0,1,2.55.2348c.7928.7569-.3718,1.96.1425,2.9236.6746,1.2643,3.1322.4862,7.5879.7784,3.9663.26,5.8392,1.127,6.6981.0435.7678-.9685-.2023-2.3257.7181-3.21a2.475,2.475,0,0,1,3.22.1024c.7033.8789-.4172,2.0172.1425,2.9235.742,1.2016,3.2537.0788,7.9294.0627,3.7254-.0128,5.6871.6878,6.511-.4849.6653-.947-.1565-2.0546.6762-2.9332a2.57,2.57,0,0,1,3.3362-.1136c.7355.83-.2757,2.0337.3391,2.8365.7529.9832,2.8212-.1024,6.64-.5656,4.1438-.5026,6.5745.1855,7.2039-1.0975.4572-.9318-.43-2.0992.283-2.7593.1888-.1748.3012-.1394,1.7339-.4387,1.3267-.2772,1.4886-.3616,1.6858-.2293.6341.4256-.1957,1.8656.3744,2.4916.6178.678,2.2722-.2643,4.9508-1.0874,4.311-1.3247,6.8237-.9733,7.223-2.3288.29-.9826-.7474-2.13-.2456-2.572.2859-.2519.6851.0657,1.55-.2163.5983-.1951.7794-.4682.99-.3677.4131.1975-.1083,1.3388.3035,1.747.5207.5163,2.1333-.538,4.9958-2.048,3.2269-1.7022,5.15-2.4578,5.1178-3.6306-.0137-.5026-.3759-.6933-.2452-1.1379a.7867.7867,0,0,1,.1678-.2973L74.9109,22.7607A108.2923,108.2923,0,0,1,66.1012,29.4216Z"/><path class="cls-2" d="M6.0968,61.796a143.525,143.525,0,0,0,17.8615,5.6828c3.6355.85,10.5712,2.3181,24.92,3.559a348.0088,348.0088,0,0,0,35.4763,1.3084c21.786-.3878,29.7453-2.6507,33.9959-4.0739a79.8657,79.8657,0,0,0,11.6256-4.9482L74.9109,22.7607c-1.6649,1.3992-4.113,3.3726-7.2074,5.5683-4.544,3.2243-7.1632,5.0828-11.033,6.633a38.7,38.7,0,0,1-10.7282,2.4866c-5.9209.6683-6.2869-.3606-13.8212-.0322a52.7537,52.7537,0,0,0-14.3847,2.451A18.4779,18.4779,0,0,0,11.004,43.41,17.1162,17.1162,0,0,0,7.24,48.067,15.4041,15.4041,0,0,0,5.096,56.6788,13.2951,13.2951,0,0,0,6.0968,61.796Z"/><path class="cls-3" d="M77.4375,20.545l10.9706,8.0277-.2251.3075-11.34-8.2975L91.1655,1.01l.3688.27Z"/><path class="cls-3" d="M106.6384,21.0041a7.77,7.77,0,0,1,1.9311,2.0033,6.1814,6.1814,0,0,1,.9565,2.45,6.5582,6.5582,0,0,1-.1645,2.7236,8.5306,8.5306,0,0,1-1.4166,2.8382.1437.1437,0,0,1-.13.0656.29.29,0,0,1-.1563-.0607l-11.6165-8.5a3.0109,3.0109,0,0,0-.3063.3551l-.2761.3771A11.5557,11.5557,0,0,0,93.7,26.595a7.4923,7.4923,0,0,0-.3386,3.1224,6.6424,6.6424,0,0,0,.995,2.8,8.5559,8.5559,0,0,0,2.236,2.3444,9.9856,9.9856,0,0,0,4.304,1.9048,6.856,6.856,0,0,0,1.3312.1156,1.3167,1.3167,0,0,1,.5915.0462.2306.2306,0,0,1,.0816.146l.021.1009a4.2912,4.2912,0,0,1-1.2212.04,9.05,9.05,0,0,1-1.6383-.3082,12.042,12.042,0,0,1-1.8461-.6852,10.6277,10.6277,0,0,1-1.8284-1.08A9.145,9.145,0,0,1,93.97,32.61a6.9573,6.9573,0,0,1-1.0335-2.9565A7.969,7.969,0,0,1,93.3005,26.4a11.816,11.816,0,0,1,1.79-3.4131,10.1325,10.1325,0,0,1,2.4662-2.4352,7.4675,7.4675,0,0,1,2.8611-1.2014,7.1926,7.1926,0,0,1,3.0843.1211A9.0672,9.0672,0,0,1,106.6384,21.0041Zm-.2047.2794A8.6943,8.6943,0,0,0,103.7069,19.9a6.8877,6.8877,0,0,0-2.6854-.2475,6.67,6.67,0,0,0-2.526.824,9.06,9.06,0,0,0-2.2541,1.8067L107.6889,30.66a8.0166,8.0166,0,0,0,1.324-2.648,5.812,5.812,0,0,0-.7558-4.8356,7.31,7.31,0,0,0-1.8235-1.8925Z"/><path class="cls-3" d="M109.9607,45.1588a3.7767,3.7767,0,0,1-1.5936-2.175,3.3993,3.3993,0,0,1,.8327-2.718l7.4883-10.2337-2.4889-1.8213q-.2154-.1575-.1129-.2973l.0614-.0838,2.7451,1.9228,4.1537-5.4183a.309.309,0,0,1,.1357-.1046.1552.1552,0,0,1,.1611.0213l.0923.0674-4.1741,5.704,5.1319,3.7551-.2046.28L117.057,30.302l-7.4884,10.2337a3.9682,3.9682,0,0,0-.6724,1.3219,2.52,2.52,0,0,0-.0429,1.1708,2.6141,2.6141,0,0,0,.4618,1.0139,3.9207,3.9207,0,0,0,.85.8369,3.977,3.977,0,0,0,1.2624.6447,5.8268,5.8268,0,0,0,1.1084.21,5.2068,5.2068,0,0,0,.8321.0076.7511.7511,0,0,1,.4324.0375.2281.2281,0,0,1,.0821.1458l.02.101a3.9082,3.9082,0,0,1-.9443.1139,4.7427,4.7427,0,0,1-1.0293-.1091,5.4246,5.4246,0,0,1-1.0289-.3344A4.9246,4.9246,0,0,1,109.9607,45.1588Z"/><path class="cls-3" d="M116.9157,49.9043l14.731-20.1319.3685.27-6.7926,9.283a9.9659,9.9659,0,0,1,2.1016-.4051,9.601,9.601,0,0,1,2.1168.0573,8.8233,8.8233,0,0,1,2.0378.5359,8.3314,8.3314,0,0,1,1.8643,1.0312,5.9709,5.9709,0,0,1,2.7493,4.0939,6.7144,6.7144,0,0,1-1.5357,4.6939l-6.4245,8.78-.3688-.27,6.4245-8.78a8.6543,8.6543,0,0,0,1.2221-2.25,4.8861,4.8861,0,0,0,.2676-2.155,4.5888,4.5888,0,0,0-.7436-2.0145,7.1228,7.1228,0,0,0-1.7957-1.8181,7.9338,7.9338,0,0,0-3.8865-1.5238,10.6716,10.6716,0,0,0-4.3464.4581l-7.6213,10.4155Z"/><path class="cls-3" d="M142.4834,68.6132a.2407.2407,0,0,1-.0924-.3276.2435.2435,0,0,1,.041-.0537l1.5346-2.29a19.9915,19.9915,0,0,1-2.1041.1668,9.1432,9.1432,0,0,1-3.922-.7663,10.2907,10.2907,0,0,1-1.9816-1.16,6.2885,6.2885,0,0,1-1.2221-1.1839,4.5806,4.5806,0,0,1-.797-1.5061,3.9,3.9,0,0,1-.1214-1.72,4.1409,4.1409,0,0,1,.8156-1.84,3.1828,3.1828,0,0,1,1.8038-1.2239,5.6432,5.6432,0,0,1,2.7284.0751,16.8114,16.8114,0,0,1,3.6795,1.4369,40.2525,40.2525,0,0,1,4.6707,2.87l1.289-1.7613a8.16,8.16,0,0,0,1.15-2.12,4.8684,4.8684,0,0,0,.2854-2.0025,4.0977,4.0977,0,0,0-.6153-1.8345,5.805,5.805,0,0,0-1.5521-1.6191,7.7422,7.7422,0,0,0-1.557-.9028,8.315,8.315,0,0,0-1.4286-.4657,6.354,6.354,0,0,0-1.2415-.1575q-.5715-.01-1.0111.0119t-.722.0512a.6059.6059,0,0,1-.3582-.0261.3176.3176,0,0,1-.0921-.1964l-.0208-.1007a10.771,10.771,0,0,1,3.4763.0533,7.9037,7.9037,0,0,1,3.16,1.4534,6.6125,6.6125,0,0,1,1.7439,1.7914,4.4582,4.4582,0,0,1,.6851,1.9821,4.8938,4.8938,0,0,1-.306,2.1268,9.0662,9.0662,0,0,1-1.2272,2.2252l-6.629,9.0593Zm-6.32-4.7108a9.44,9.44,0,0,0,2.0843,1.1817,9.2066,9.2066,0,0,0,2.0224.5567,10.34,10.34,0,0,0,1.9841.11q.9852-.0408,1.9682-.1591l3.0894-4.2221a27.0825,27.0825,0,0,0-7.9864-4.1588q-3.0444-.7569-4.3226.9907a3.8659,3.8659,0,0,0-.7389,1.6383,3.58,3.58,0,0,0,.0675,1.552,4.0892,4.0892,0,0,0,.687,1.3828,5.4466,5.4466,0,0,0,1.145,1.1274Z"/></g></g></g></svg>