<svg xmlns="http://www.w3.org/2000/svg" xmlns:xlink="http://www.w3.org/1999/xlink" viewBox="0 0 69 69"><defs><style>.cls-1{fill:none;}.cls-2{clip-path:url(#clip-path);}.cls-3{fill:#f17b18;}.cls-4{fill:#fff;}</style><clipPath id="clip-path"><rect class="cls-1" width="69" height="69"/></clipPath></defs><title>phone_70x70</title><g id="Layer_2" data-name="Layer 2"><g id="Layer_1-2" data-name="Layer 1"><g class="cls-2"><g id="Mask_Group_34" data-name="Mask Group 34"><circle id="Ellipse_3" data-name="Ellipse 3" class="cls-3" cx="34.5" cy="34.5" r="34.5"/><path id="Path_103" data-name="Path 103" class="cls-4" d="M26.7917,13.7014a3.1148,3.1148,0,0,1,1.863,2.5037q.754,3.2824,1.4392,6.5649a4.4365,4.4365,0,0,1,.0985.9857,2.03,2.03,0,0,1-1.4588,2.1193c-.7.2464-1.39.483-2.09.7a1.7051,1.7051,0,0,0-1.2223,1.3307,4.5437,4.5437,0,0,0,.1084,2.6515,28.1714,28.1714,0,0,0,8.5363,12.41,19.2079,19.2079,0,0,0,2.6121,1.8038,3.1637,3.1637,0,0,0,1.9715.345,1.557,1.557,0,0,0,1.1828-.68c.3844-.5717.7787-1.1237,1.173-1.6856a2.1783,2.1783,0,0,1,2.9489-.8915l.0083.0044c.69.2957,1.35.68,2.0207,1.0448l3.7555,2.07c.3155.1775.6309.3746.9858.5718a3.0556,3.0556,0,0,1,1.5968,2.3164l-.1183.828c-.276.6308-.5027,1.2913-.8378,1.8926a8.8716,8.8716,0,0,1-6.7423,4.7314c-.6112.0788-1.2322.0591-1.8532.0788L41.3113,55.2c-.5619-.1676-1.1434-.3253-1.6954-.5323a22.9372,22.9372,0,0,1-7.3732-4.6624,52.9345,52.9345,0,0,1-7.038-7.8069,53.0617,53.0617,0,0,1-6.6634-11,21.8334,21.8334,0,0,1-1.8433-6.9c-.0493-.71,0-1.4195-.0493-2.1193l.207-1.4786c0-.1084.0887-.2169.1183-.3253a8.7236,8.7236,0,0,1,6.6831-6.4761,18.1811,18.1811,0,0,1,2.3165-.3155Z"/></g></g></g></g></svg>