<svg xmlns="http://www.w3.org/2000/svg" viewBox="0 0 78.6934 206.2569"><defs><style>.cls-1{fill:#3f3f3d;}.cls-2{fill:#d67e12;}.cls-3,.cls-4{fill:none;stroke:#d67e12;stroke-miterlimit:10;stroke-width:0.5476px;}.cls-4{stroke-dasharray:0.8766 0.8766;}</style></defs><title>shoe_guide</title><g id="Layer_2" data-name="Layer 2"><g id="Layer_1-2" data-name="Layer 1"><path class="cls-1" d="M29.762,0a34.3307,34.3307,0,0,1,13.02,3.5289c4.7111,2.3638,7.6505,5.2364,10.5868,8.1531a67.62,67.62,0,0,1,9.7349,12.412,102.5671,102.5671,0,0,1,12.047,27.5013,87.8566,87.8566,0,0,1,3.529,25.676,100.9556,100.9556,0,0,1-3.2856,22.7554c-1.7472,7.1961-2.7927,8.6089-5.1109,18.3748-.9044,3.81-2.0744,8.79-3.0421,15.3325-.88,5.9468-.62,6.61-1.8253,18.6181-.7761,7.7281-1.18,11.6791-1.947,15.941-1.22,6.7749-1.9333,10.7382-4.1374,15.8193a39,39,0,0,1-9.0048,13.629,29.2871,29.2871,0,0,1-10.3434,6.8145,28.664,28.664,0,0,1-17.5229.6084A29.7031,29.7031,0,0,1,9.3186,197.62a30.921,30.921,0,0,1-7.6663-13.8723c-2.8328-9.4634-1.3471-17.52-.4868-21.9037,1.61-8.2009,4.8416-14.6,7.3013-19.47a141.9723,141.9723,0,0,0,7.7879-16.9145,26.1762,26.1762,0,0,0,1.8253-7.91,27.0682,27.0682,0,0,0-1.46-10.1c-.6089-1.7981-1.18-2.8952-3.6506-7.3012C7.7172,90.783,7.9279,91.516,6.7631,89.1966A49.4612,49.4612,0,0,1,1.774,75.6893a49.6759,49.6759,0,0,1-.73-9.8566c-.0551-4.8945.2632-8.8147,1.2169-17.1579C3.36,39.0594,3.91,34.2516,4.3294,32.2471,5.5349,26.4923,7.0327,19.64,11.6306,12.29c3.8169-6.1011,7.1138-8.2987,8.0314-8.8832A22.8378,22.8378,0,0,1,29.762,0Z"/><polygon class="cls-2" points="30.887 206.161 33.373 203.017 28.402 203.017 30.887 206.161"/><line class="cls-3" x1="30.8872" y1="203.0173" x2="30.8872" y2="202.5792"/><line class="cls-4" x1="30.8872" y1="201.7026" x2="30.8872" y2="4.0197"/><line class="cls-3" x1="30.8872" y1="3.5814" x2="30.8872" y2="3.1433"/><polygon class="cls-2" points="30.887 0 28.402 3.143 33.373 3.143 30.887 0"/></g></g></svg>